<?xml version="1.0" encoding="utf-8"?>
<!-- Generator: Adobe Illustrator 21.0.0, SVG Export Plug-In . SVG Version: 6.00 Build 0)  -->
<svg version="1.1" id="Capa_1" xmlns="http://www.w3.org/2000/svg" xmlns:xlink="http://www.w3.org/1999/xlink" x="0px" y="0px"
	 viewBox="0 0 119 22" style="enable-background:new 0 0 119 22;" xml:space="preserve">
<style type="text/css">
	.st0{fill:#203A5D;}
	.st1{fill:#D71D07;}
</style>
<g>
	<path class="st0" d="M49.3,10.4c-1.9,0-3.4-1.5-3.4-3.4c0-1.9,1.5-3.4,3.4-3.4v0h0h2.9V0.8V0.1h-3h0v0c-3.7,0-6.8,3-6.8,6.8
		c0,3.7,3,6.8,6.8,6.8h0h3V13v-2.7H49.3L49.3,10.4z"/>
</g>
<rect x="60.6" y="14.7" class="st1" width="15.2" height="1.3"/>
<rect x="47.5" y="14.7" class="st1" width="5" height="1.3"/>
<path class="st0" d="M53.3,13.3V0.2h3.1v12.9c0,0.6,0.3,1,1.1,1h2.4v3H57C54.8,17.1,53.3,15.4,53.3,13.3"/>
<path class="st0" d="M71.1,11c-1.1,0-2-0.9-2.1-2V8.8c0.1-1.1,1-2,2.1-2c1.2,0,2.1,0.9,2.1,2.1C73.2,10.1,72.2,11,71.1,11 M71.1,4.2
	c-0.7,0-1.5,0.2-2.1,0.5V0.1h-2.7v8.5v0.5c0,0,0,0.1,0,0.1c0.2,2.5,2.2,4.4,4.7,4.4c2.6,0,4.8-2.1,4.8-4.8
	C75.8,6.3,73.7,4.2,71.1,4.2"/>
<path class="st0" d="M62.2,9.7c0,0.8-0.1,1.3-0.9,1.3c-0.8,0-1-0.6-1-1.2V3h-2.7v7.4c0,1.5,0.7,2.6,2.3,3.1c1,0.2,1.9,0.2,2.8,0
	c1.3-0.4,2.3-1.5,2.3-3.1V3h-2.7V9.7z"/>
<g>
	<path class="st0" d="M74.6,20c-0.3,0-0.6-0.3-0.6-0.6c0-0.3,0.3-0.6,0.6-0.6c0.3,0,0.6,0.3,0.6,0.6C75.2,19.7,74.9,20,74.6,20
		 M75.9,19.4c0-0.8-0.6-1.4-1.4-1.4c-0.8,0-1.4,0.6-1.4,1.4c0,0.8,0.6,1.4,1.4,1.4c0.2,0,0.4-0.1,0.6-0.1v0.1h0.8L75.9,19.4
		L75.9,19.4C75.9,19.4,75.9,19.4,75.9,19.4"/>
	<path class="st0" d="M66.6,20c-0.3,0-0.6-0.3-0.6-0.6v-0.1c0-0.3,0.3-0.6,0.6-0.6c0.3,0,0.6,0.3,0.6,0.6C67.3,19.7,67,20,66.6,20
		 M66.6,18c-0.2,0-0.4,0.1-0.6,0.1V17h-0.8v2.4v0.1c0,0,0,0,0,0c0.1,0.7,0.6,1.3,1.4,1.3c0.8,0,1.4-0.6,1.4-1.4
		C68,18.6,67.4,18,66.6,18"/>
	<path class="st0" d="M69.1,19.1c0.1-0.2,0.3-0.3,0.5-0.3c0.1,0,0.2,0,0.3,0.1l-0.7,0.4L69,19.3C69,19.3,69,19.2,69.1,19.1 M69.6,20
		c-0.1,0-0.3,0-0.4-0.1l0.6-0.3l0.4-0.2l0.7-0.4c-0.1-0.2-0.2-0.4-0.3-0.5c-0.3-0.3-0.6-0.4-1-0.4c-0.5,0-1,0.3-1.2,0.7
		c-0.1,0.2-0.2,0.4-0.2,0.7c0,0.1,0,0.2,0,0.3c0.1,0.2,0.1,0.4,0.3,0.5c0.3,0.3,0.6,0.5,1.1,0.5c0.5,0,0.9-0.3,1.2-0.7l-0.7-0.4
		C70,19.9,69.8,20,69.6,20"/>
	<path class="st0" d="M72.4,18L72.4,18L72.4,18c-0.8,0-1.4,0.6-1.4,1.4c0,0.8,0.6,1.4,1.4,1.4h0H73v-0.1V20h-0.6
		c-0.3,0-0.6-0.3-0.6-0.6c0-0.3,0.3-0.6,0.6-0.6H73v-0.6V18H72.4z"/>
	<path class="st0" d="M60.7,18.3v2.5h0.9v-1.3h1v-0.8h-1v-0.3c0-0.2,0.1-0.3,0.3-0.3h0.7v-0.9h-0.8C61.1,17.2,60.7,17.6,60.7,18.3"
		/>
	<path class="st0" d="M64.2,19.6c0,0.2,0,0.4-0.3,0.4c-0.2,0-0.3-0.2-0.3-0.3V18h-0.8v1.8c0,0.4,0.2,0.8,0.7,0.9v1.1h0.8v-1.1
		c0.4-0.1,0.7-0.4,0.7-0.9V18h-0.8V19.6z"/>
</g>
</svg>
