<?xml version="1.0" encoding="UTF-8" standalone="no"?>
<!-- Created with Inkscape (http://www.inkscape.org/) -->

<svg
   xmlns:dc="http://purl.org/dc/elements/1.1/"
   xmlns:cc="http://creativecommons.org/ns#"
   xmlns:rdf="http://www.w3.org/1999/02/22-rdf-syntax-ns#"
   xmlns:svg="http://www.w3.org/2000/svg"
   xmlns="http://www.w3.org/2000/svg"
   xmlns:sodipodi="http://sodipodi.sourceforge.net/DTD/sodipodi-0.dtd"
   xmlns:inkscape="http://www.inkscape.org/namespaces/inkscape"
   width="118.987"
   height="22.487"
   id="svg7056"
   version="1.1"
   inkscape:version="0.48.4 r9939"
   sodipodi:docname="New document 2">
  <defs
     id="defs7058" />
  <sodipodi:namedview
     id="base"
     pagecolor="#ffffff"
     bordercolor="#666666"
     borderopacity="1.0"
     inkscape:pageopacity="0.0"
     inkscape:pageshadow="2"
     inkscape:zoom="8.6808812"
     inkscape:cx="53.458296"
     inkscape:cy="16.763734"
     inkscape:document-units="px"
     inkscape:current-layer="layer1"
     showgrid="false"
     fit-margin-top="0"
     fit-margin-left="0"
     fit-margin-right="0"
     fit-margin-bottom="0"
     inkscape:window-width="1440"
     inkscape:window-height="838"
     inkscape:window-x="-8"
     inkscape:window-y="-8"
     inkscape:window-maximized="1" />
  <metadata
     id="metadata7061">
    <rdf:RDF>
      <cc:Work
         rdf:about="">
        <dc:format>image/svg+xml</dc:format>
        <dc:type
           rdf:resource="http://purl.org/dc/dcmitype/StillImage" />
        <dc:title></dc:title>
      </cc:Work>
    </rdf:RDF>
  </metadata>
  <g
     inkscape:label="Layer 1"
     inkscape:groupmode="layer"
     id="layer1"
     transform="translate(-340.04271,-380.40954)">
    <g
       id="g2497"
       transform="translate(-261.01929,-189.16546)">
      <g
         id="g2499">
        <g
           id="g2501">
          <path
             style="fill:#0ca74f"
             inkscape:connector-curvature="0"
             id="path2503"
             d="m 617.281,592.062 h -6.895 l -9.324,-13.987 h 9.96 l 2.858,5.035 8.777,-13.535 h 9.614 l -14.99,22.487 z m -5.981,-1.707 h 5.068 l 12.715,-19.074 h -5.497 l -9.802,15.117 -3.753,-6.616 h -5.78 l 7.049,10.573 z" />
          <path
             style="fill:#0756a5"
             inkscape:connector-curvature="0"
             id="path2505"
             d="m 645.07,591.589 h -12.188 c -4.553,0 -8.254,-3.702 -8.254,-8.252 0,-4.55 3.701,-8.252 8.254,-8.252 h 12.188 v 5.8 h -9.826 c -1.354,0 -2.455,1.1 -2.455,2.452 0,1.352 1.102,2.453 2.455,2.453 h 9.826 v 5.799 z m -12.187,-14.798 c -3.61,0 -6.548,2.937 -6.548,6.546 0,3.61 2.938,6.546 6.548,6.546 h 10.48 v -2.387 h -8.119 c -2.293,0 -4.159,-1.864 -4.159,-4.159 0,-2.293 1.866,-4.159 4.159,-4.159 h 8.119 v -2.387 h -10.48 z" />
        </g>
      </g>
    </g>
    <g
       id="g2507"
       transform="translate(-261.01929,-189.16546)">
      <polygon
         style="fill:#0ca74f"
         id="polygon2509"
         points="659.008,574.769 653.766,591.339 651.915,591.339 646.653,574.769 648.515,574.769 652.84,588.38 657.146,574.769 " />
      <rect
         style="fill:#0ca74f"
         id="rect2511"
         height="12.08"
         width="1.758"
         y="579.25897"
         x="659.64801" />
      <path
         style="fill:#0ca74f"
         inkscape:connector-curvature="0"
         id="path2513"
         d="m 668.904,591.516 v -1.738 c -0.998,0.366 -1.6,0.298 -1.6,0.298 -0.227,0 -0.421,-0.021 -0.598,-0.258 -0.193,-0.259 -0.283,-0.636 -0.283,-0.966 v -7.921 h 2.366 v -1.695 h -2.366 v -3.515 h -1.757 v 3.515 h -1.924 v 1.695 h 1.924 v 7.939 c 0,0.413 0.068,0.8 0.203,1.147 0.134,0.35 0.32,0.659 0.555,0.919 0.237,0.263 0.519,0.47 0.837,0.614 0.318,0.144 0.67,0.219 1.043,0.219 10e-4,10e-4 0.891,0.021 1.6,-0.253 z" />
      <path
         style="fill:#0ca74f"
         inkscape:connector-curvature="0"
         id="path2515"
         d="m 673.555,591.747 c -1.132,0 -2.09,-0.337 -2.846,-1.003 -0.744,-0.695 -1.118,-1.59 -1.118,-2.668 0,-1.189 0.442,-2.158 1.317,-2.878 0.959,-0.797 2.361,-1.2 4.166,-1.2 h 1.055 v -1.31 c 0,-0.579 -0.179,-1.071 -0.547,-1.502 -0.356,-0.433 -0.786,-0.642 -1.315,-0.642 -1.131,0 -2.184,0.221 -3.128,0.654 l -0.414,0.189 v -1.881 l 0.189,-0.072 c 1.029,-0.389 2.229,-0.585 3.564,-0.585 0.954,0 1.771,0.376 2.43,1.118 0.648,0.716 0.978,1.629 0.978,2.711 v 7.533 l -0.11,0.088 c -1.214,0.962 -2.635,1.448 -4.221,1.448 z m 1.634,-6.054 c -1.322,0 -2.328,0.267 -2.991,0.794 -0.521,0.412 -0.774,0.928 -0.774,1.577 0,0.57 0.191,1.033 0.585,1.416 0.396,0.385 0.927,0.571 1.623,0.571 0.91,0 1.748,-0.235 2.497,-0.701 v -3.657 h -0.94 z" />
      <rect
         style="fill:#0ca74f"
         id="rect2517"
         height="18.216999"
         width="1.757"
         y="573.40802"
         x="679.71002" />
      <path
         style="fill:#223e80"
         inkscape:connector-curvature="0"
         id="path2519"
         d="m 690.322,591.725 c -2.108,0 -3.866,-0.837 -5.227,-2.488 -1.358,-1.648 -2.047,-3.731 -2.047,-6.194 0,-2.446 0.688,-4.523 2.047,-6.172 1.386,-1.68 3.144,-2.532 5.227,-2.532 1.147,0 2.246,0.213 3.265,0.634 l 0.181,0.075 v 1.883 l -0.418,-0.199 c -0.969,-0.463 -1.987,-0.697 -3.027,-0.697 -1.611,0 -2.901,0.658 -3.941,2.014 -1.046,1.332 -1.575,3.008 -1.575,4.984 0,1.976 0.529,3.645 1.571,4.957 1.057,1.375 2.347,2.041 3.945,2.041 1.042,0 2.062,-0.227 3.03,-0.677 l 0.415,-0.19 v 1.885 l -0.191,0.07 c -1.094,0.402 -2.187,0.606 -3.255,0.606 z" />
      <path
         style="fill:#223e80"
         inkscape:connector-curvature="0"
         id="path2521"
         d="m 699.268,591.747 c -1.132,0 -2.09,-0.337 -2.847,-1.003 -0.744,-0.695 -1.118,-1.59 -1.118,-2.668 0,-1.189 0.444,-2.158 1.318,-2.878 0.959,-0.797 2.36,-1.2 4.166,-1.2 h 1.055 v -1.31 c 0,-0.579 -0.18,-1.071 -0.546,-1.502 -0.357,-0.433 -0.788,-0.642 -1.316,-0.642 -1.132,0 -2.184,0.221 -3.128,0.654 l -0.414,0.189 v -1.881 l 0.188,-0.072 c 1.03,-0.389 2.229,-0.585 3.565,-0.585 0.954,0 1.771,0.376 2.43,1.118 0.648,0.716 0.978,1.629 0.978,2.711 v 7.533 l -0.11,0.088 c -1.216,0.962 -2.635,1.448 -4.221,1.448 z m 1.634,-6.054 c -1.324,0 -2.33,0.267 -2.991,0.794 -0.521,0.412 -0.774,0.928 -0.774,1.577 0,0.57 0.191,1.033 0.585,1.416 0.396,0.385 0.926,0.571 1.624,0.571 0.909,0 1.748,-0.235 2.496,-0.701 v -3.657 h -0.94 z" />
      <path
         style="fill:#223e80"
         inkscape:connector-curvature="0"
         id="path2523"
         d="m 705.403,591.361 v -11.447 l 0.157,-0.082 c 1.228,-0.637 2.613,-0.959 4.115,-0.959 h 0.365 c 0.125,0 0.229,0.01 0.316,0.03 l 0.226,0.053 v 1.683 c 0,0 -0.643,-0.053 -0.763,-0.06 -0.113,-0.007 -0.2,-0.011 -0.26,-0.011 -0.807,0 -1.612,0.145 -2.4,0.431 v 10.362 h -1.756 z" />
      <path
         style="fill:#223e80"
         inkscape:connector-curvature="0"
         id="path2525"
         d="m 716.123,591.702 c -1.614,0 -2.934,-0.641 -3.924,-1.903 -0.985,-1.256 -1.485,-2.82 -1.485,-4.647 0,-1.825 0.447,-3.342 1.328,-4.507 0.884,-1.19 2.144,-1.794 3.743,-1.794 0.841,0 1.683,0.151 2.507,0.452 v -5.85 h 1.757 v 17.184 l -0.16,0.081 c -1.293,0.653 -2.561,0.984 -3.766,0.984 z m -0.224,-11.157 c -1.081,0 -1.885,0.425 -2.459,1.298 -0.567,0.841 -0.854,1.954 -0.854,3.309 0,1.351 0.343,2.507 1.018,3.434 0.692,0.989 1.555,1.467 2.64,1.467 0.579,0 1.268,-0.164 2.048,-0.49 v -8.55 c -0.743,-0.311 -1.547,-0.468 -2.393,-0.468 z" />
      <circle
         style="fill:#0ca74f"
         sodipodi:ry="0.96700001"
         sodipodi:rx="0.96700001"
         sodipodi:cy="575.58502"
         sodipodi:cx="660.54303"
         d="m 661.51003,575.58502 c 0,0.53406 -0.43294,0.967 -0.967,0.967 -0.53406,0 -0.967,-0.43294 -0.967,-0.967 0,-0.53406 0.43294,-0.967 0.967,-0.967 0.53406,0 0.967,0.43294 0.967,0.967 z"
         id="circle2527"
         r="0.96700001"
         cy="575.58502"
         cx="660.54303" />
    </g>
  </g>
</svg>
